<?xml version="1.0" encoding="UTF-8" standalone="no"?> <svg id="Layer_1" data-name="Layer 1" xmlns="http://www.w3.org/2000/svg" viewBox="0 0 128 128"><defs><style>.cls-1{fill:#2e79bd;}.cls-2{fill:#2d3e50;}</style></defs><title>x</title><path class="cls-1" d="M72.72191,33.73386,70.5072,35.94857l-2.21471-2.21471a9.75627,9.75627,0,0,0-16.6548,6.89853c0,3.15194,1.66767,5.93632,3.48516,8.39139a80.09823,80.09823,0,0,0,6.48181,7.71793,54.55924,54.55924,0,0,0,7.604,6.71124,1.81472,1.81472,0,0,0,2.5971,0,54.55877,54.55877,0,0,0,7.604-6.71124,80.097,80.097,0,0,0,6.48181-7.71793c1.8175-2.45507,3.48517-5.23946,3.48517-8.39139a9.75628,9.75628,0,0,0-16.65481-6.89853Z"/><path class="cls-2" d="M116.28359,47.12922A46.05693,46.05693,0,0,0,24.178,48.021c0,.25031,0,1.79907.01566,4.21609-.39895,2.52658-2.2841,4.61507-4.03625,6.34378-1.57227,1.54877-6.2186,5.937-6.8522,6.71135a7.94986,7.94986,0,0,0-1.43924,2.4875c-.5163,1.58.29723,2.34663,1.55659,3.12884a24.60639,24.60639,0,0,0,2.80817,1.47052c.91517.43026,1.83818.82137,2.76118,1.2203a6.7017,6.7017,0,0,1,1.47841.6883l.21121.25815s3.73895,24.63973,3.77023,24.8666a8.49955,8.49955,0,0,0,2.331,5.46767c2.69865,2.47177,6.95385,1.8851,10.3174,1.87728,2.4014,0,4.795-.00784,7.19632-.01562h.485c.12514.45365.80566,11.5611,1.23587,17.71711a1.695,1.695,0,0,0,2.026,1.541l53.918-10.72416a3.66637,3.66637,0,0,0,2.95675-3.59038V101.892a90.06331,90.06331,0,0,1,7.6188-35.64548A45.92207,45.92207,0,0,0,116.28359,47.12922ZM70.5072,78.81646a31.37851,31.37851,0,1,1,31.37848-31.37853A31.37853,31.37853,0,0,1,70.5072,78.81646Z"/></svg>